# Blender v2.80 (sub 75) OBJ File: 'roundel.blend'
# www.blender.org
mtllib classic_roundel.mtl
o Cube_Cube.003
v -0.500000 -0.500000 0.500000
v -0.500000 0.500000 0.500000
v -0.500000 -0.500000 -0.500000
v -0.500000 0.500000 -0.500000
v 0.500000 -0.500000 0.500000
v 0.500000 0.500000 0.500000
v 0.500000 -0.500000 -0.500000
v 0.500000 0.500000 -0.500000
v 0.500000 0.000000 -0.500000
v 0.500000 -0.500000 0.000000
v 0.500000 0.500000 0.000000
v 0.500000 0.000000 0.500000
v 0.500000 -0.250000 -0.500000
v 0.500000 -0.500000 -0.250000
v 0.500000 0.500000 0.250000
v 0.500000 -0.250000 0.500000
v 0.500000 0.250000 -0.500000
v 0.500000 -0.500000 0.250000
v 0.500000 0.500000 -0.250000
v 0.500000 0.250000 0.500000
v 0.500000 -0.375000 -0.500000
v 0.500000 -0.500000 -0.375000
v 0.500000 0.500000 0.375000
v 0.500000 -0.375000 0.500000
v 0.500000 0.125000 -0.500000
v 0.500000 -0.500000 0.125000
v 0.500000 0.500000 -0.125000
v 0.500000 0.125000 0.500000
v 0.500000 0.000000 0.432881
v 0.500000 -0.432881 0.000000
v 0.500000 -0.125000 -0.500000
v 0.500000 -0.500000 -0.125000
v 0.500000 0.500000 0.125000
v 0.500000 -0.125000 0.500000
v 0.500000 0.375000 -0.500000
v 0.500000 -0.500000 0.375000
v 0.500000 0.500000 -0.375000
v 0.500000 0.375000 0.500000
v 0.500000 0.000000 -0.432881
v 0.500000 0.432881 0.000000
v 0.500000 0.240119 -0.360179
v 0.500000 0.360179 -0.240119
v 0.500000 -0.240119 -0.360179
v 0.500000 -0.360179 -0.240119
v 0.500000 -0.240119 0.360179
v 0.500000 -0.360179 0.240119
v 0.500000 0.240119 0.360179
v 0.500000 0.360179 0.240119
v 0.500000 0.410667 0.136889
v 0.500000 0.136889 0.410667
v 0.500000 -0.410667 0.136889
v 0.500000 -0.306093 0.306093
v 0.500000 -0.136889 -0.410667
v 0.500000 -0.306093 -0.306093
v 0.500000 -0.410667 -0.136889
v 0.500000 0.306093 -0.306093
v 0.500000 0.136889 -0.410667
v 0.500000 0.410667 -0.136889
v 0.500000 -0.136889 0.410667
v 0.500000 0.306093 0.306093
v 0.400000 0.000000 0.432881
v 0.400000 -0.432881 0.000000
v 0.400000 0.000000 -0.432881
v 0.400000 0.432881 0.000000
v 0.400000 0.240119 -0.360179
v 0.400000 0.360179 -0.240119
v 0.400000 -0.240119 -0.360179
v 0.400000 -0.360179 -0.240119
v 0.400000 -0.240119 0.360179
v 0.400000 -0.360179 0.240119
v 0.400000 0.240119 0.360179
v 0.400000 0.360179 0.240119
v 0.400000 0.410667 0.136889
v 0.400000 0.136889 0.410667
v 0.400000 -0.410667 0.136889
v 0.400000 -0.306093 0.306093
v 0.400000 -0.136889 -0.410667
v 0.400000 -0.306093 -0.306093
v 0.400000 -0.410667 -0.136889
v 0.400000 0.306093 -0.306093
v 0.400000 0.136889 -0.410667
v 0.400000 0.410667 -0.136889
v 0.400000 -0.136889 0.410667
v 0.400000 0.306093 0.306093
v 0.400000 0.012088 0.358393
v 0.400000 0.131546 0.283411
v 0.400000 0.212491 0.212491
v 0.400000 0.283411 0.131546
v 0.400000 0.358393 0.012088
v 0.400000 -0.103297 0.276365
v 0.400000 0.015478 0.181971
v 0.400000 0.101472 0.101472
v 0.400000 0.181971 0.015478
v 0.400000 0.276365 -0.103297
v 0.400000 -0.193590 0.193590
v 0.400000 -0.084895 0.084895
v 0.400000 0.000000 -0.000000
v 0.400000 0.084895 -0.084895
v 0.400000 0.193590 -0.193590
v 0.400000 -0.276365 0.103297
v 0.400000 -0.181971 -0.015478
v 0.400000 -0.101472 -0.101472
v 0.400000 -0.015478 -0.181971
v 0.400000 0.103297 -0.276365
v 0.400000 -0.358393 -0.012088
v 0.400000 -0.283411 -0.131546
v 0.400000 -0.212491 -0.212491
v 0.400000 -0.131546 -0.283411
v 0.400000 -0.012088 -0.358393
vt 0.375000 0.000000
vt 0.625000 0.000000
vt 0.625000 0.250000
vt 0.375000 0.250000
vt 0.625000 0.500000
vt 0.593750 0.500000
vt 0.562500 0.500000
vt 0.531250 0.500000
vt 0.500000 0.500000
vt 0.468750 0.500000
vt 0.437500 0.500000
vt 0.406250 0.500000
vt 0.375000 0.500000
vt 0.593750 0.718750
vt 0.625000 0.718750
vt 0.625000 0.750000
vt 0.593750 0.750000
vt 0.375000 0.750000
vt 0.406250 0.750000
vt 0.437500 0.750000
vt 0.468750 0.750000
vt 0.500000 0.750000
vt 0.531250 0.750000
vt 0.562500 0.750000
vt 0.625000 1.000000
vt 0.375000 1.000000
vt 0.125000 0.500000
vt 0.375000 0.531250
vt 0.375000 0.562500
vt 0.375000 0.593750
vt 0.375000 0.625000
vt 0.375000 0.656250
vt 0.375000 0.687500
vt 0.375000 0.718750
vt 0.125000 0.750000
vt 0.875000 0.500000
vt 0.875000 0.750000
vt 0.625000 0.687500
vt 0.625000 0.656250
vt 0.625000 0.625000
vt 0.625000 0.593750
vt 0.625000 0.562500
vt 0.625000 0.531250
vt 0.468750 0.718750
vt 0.500000 0.718750
vt 0.593750 0.593750
vt 0.593750 0.625000
vt 0.593750 0.531250
vt 0.593750 0.562500
vt 0.406250 0.718750
vt 0.437500 0.718750
vt 0.531250 0.718750
vt 0.562500 0.718750
vt 0.593750 0.656250
vt 0.593750 0.687500
vt 0.406250 0.656250
vt 0.406250 0.687500
vt 0.406250 0.625000
vt 0.468750 0.531250
vt 0.437500 0.531250
vt 0.500000 0.531250
vt 0.406250 0.531250
vt 0.406250 0.562500
vt 0.406250 0.593750
vt 0.562500 0.531250
vt 0.531250 0.531250
vt 0.406250 0.531250
vt 0.406250 0.562500
vt 0.593750 0.593750
vt 0.593750 0.562500
vt 0.406250 0.687500
vt 0.406250 0.718750
vt 0.593750 0.531250
vt 0.562500 0.531250
vt 0.500000 0.718750
vt 0.531250 0.718750
vt 0.437500 0.531250
vt 0.437500 0.718750
vt 0.468750 0.718750
vt 0.562500 0.718750
vt 0.406250 0.593750
vt 0.406250 0.625000
vt 0.531250 0.531250
vt 0.500000 0.531250
vt 0.406250 0.656250
vt 0.468750 0.531250
vt 0.593750 0.718750
vt 0.593750 0.687500
vt 0.593750 0.656250
vt 0.593750 0.625000
vt 0.500000 0.697917
vt 0.473558 0.686699
vt 0.448661 0.676339
vt 0.438301 0.651442
vt 0.427083 0.625000
vt 0.526442 0.686699
vt 0.500000 0.666667
vt 0.476103 0.648897
vt 0.458333 0.625000
vt 0.438301 0.598558
vt 0.551339 0.676339
vt 0.523897 0.648897
vt 0.500000 0.625000
vt 0.476103 0.601103
vt 0.448661 0.573661
vt 0.561699 0.651442
vt 0.541667 0.625000
vt 0.523897 0.601103
vt 0.500000 0.583333
vt 0.473558 0.563301
vt 0.572917 0.625000
vt 0.561699 0.598558
vt 0.551339 0.573661
vt 0.526442 0.563301
vt 0.500000 0.552083
vn -1.0000 0.0000 0.0000
vn 0.0000 0.0000 -1.0000
vn 1.0000 0.0000 0.0000
vn 0.0000 0.0000 1.0000
vn 0.0000 -1.0000 0.0000
vn 0.0000 1.0000 0.0000
vn 0.0000 0.7733 0.6340
vn 0.0000 -0.8983 0.4394
vn 0.0000 0.7733 -0.6340
vn 0.0000 -0.6340 0.7733
vn 0.0000 -0.1602 -0.9871
vn 0.0000 0.6340 0.7733
vn 0.0000 0.4394 -0.8983
vn 0.0000 0.6340 -0.7733
vn 0.0000 -0.4394 -0.8983
vn 0.0000 0.9871 0.1602
vn 0.0000 0.1602 -0.9871
vn 0.0000 -0.1602 0.9871
vn 0.0000 0.8983 -0.4394
vn 0.0000 0.8983 0.4394
vn 0.0000 0.4394 0.8983
vn 0.0000 -0.4394 0.8983
vn 0.0000 0.9871 -0.1602
vn 0.0000 -0.7733 -0.6340
vn 0.0000 -0.8983 -0.4394
vn 0.0000 0.1602 0.9871
vn 0.0000 -0.9871 0.1602
vn 0.0000 -0.7733 0.6340
vn 0.0000 -0.6340 -0.7733
vn 0.0000 -0.9871 -0.1602
usemtl Roundel
s off
f 1/1/1 2/2/1 4/3/1 3/4/1
f 3/4/2 4/3/2 8/5/2 35/6/2 17/7/2 25/8/2 9/9/2 31/10/2 13/11/2 21/12/2 7/13/2
f 60/14/3 23/15/3 6/16/3 38/17/3
f 5/18/4 24/19/4 16/20/4 34/21/4 12/22/4 28/23/4 20/24/4 38/17/4 6/16/4 2/25/4 1/26/4
f 3/27/5 7/13/5 22/28/5 14/29/5 32/30/5 10/31/5 26/32/5 18/33/5 36/34/5 5/18/5 1/35/5
f 8/5/6 4/36/6 2/37/6 6/16/6 23/15/6 15/38/6 33/39/6 11/40/6 27/41/6 19/42/6 37/43/6
f 59/44/3 29/45/3 12/22/3 34/21/3
f 58/46/3 27/41/3 11/40/3 40/47/3
f 56/48/3 37/43/3 19/42/3 42/49/3
f 52/50/3 45/51/3 16/20/3 24/19/3
f 50/52/3 47/53/3 20/24/3 28/23/3
f 49/54/3 33/39/3 15/38/3 48/55/3
f 40/47/3 11/40/3 33/39/3 49/54/3
f 29/45/3 50/52/3 28/23/3 12/22/3
f 26/32/3 51/56/3 46/57/3 18/33/3
f 10/31/3 30/58/3 51/56/3 26/32/3
f 36/34/3 52/50/3 24/19/3 5/18/3
f 18/33/3 46/57/3 52/50/3 36/34/3
f 13/11/3 31/10/3 53/59/3 43/60/3
f 31/10/3 9/9/3 39/61/3 53/59/3
f 22/28/3 54/62/3 44/63/3 14/29/3
f 7/13/3 21/12/3 54/62/3 22/28/3
f 21/12/3 13/11/3 43/60/3 54/62/3
f 32/30/3 55/64/3 30/58/3 10/31/3
f 14/29/3 44/63/3 55/64/3 32/30/3
f 17/7/3 35/6/3 56/48/3 41/65/3
f 35/6/3 8/5/3 37/43/3 56/48/3
f 9/9/3 25/8/3 57/66/3 39/61/3
f 25/8/3 17/7/3 41/65/3 57/66/3
f 42/49/3 19/42/3 27/41/3 58/46/3
f 45/51/3 59/44/3 34/21/3 16/20/3
f 47/53/3 60/14/3 38/17/3 20/24/3
f 48/55/3 15/38/3 23/15/3 60/14/3
f 44/63/7 54/62/7 78/67/7 68/68/7
f 42/49/8 58/46/8 82/69/8 66/70/8
f 52/50/9 46/57/9 70/71/9 76/72/9
f 41/65/10 56/48/10 80/73/10 65/74/10
f 50/52/11 29/45/11 61/75/11 74/76/11
f 54/62/12 43/60/12 67/77/12 78/67/12
f 59/44/13 45/51/13 69/78/13 83/79/13
f 45/51/14 52/50/14 76/72/14 69/78/14
f 47/53/15 50/52/15 74/76/15 71/80/15
f 30/58/16 55/64/16 79/81/16 62/82/16
f 29/45/17 59/44/17 83/79/17 61/75/17
f 39/61/18 57/66/18 81/83/18 63/84/18
f 46/57/19 51/56/19 75/85/19 70/71/19
f 55/64/20 44/63/20 68/68/20 79/81/20
f 43/60/21 53/59/21 77/86/21 67/77/21
f 57/66/22 41/65/22 65/74/22 81/83/22
f 51/56/23 30/58/23 62/82/23 75/85/23
f 48/55/24 60/14/24 84/87/24 72/88/24
f 49/54/25 48/55/25 72/88/25 73/89/25
f 53/59/26 39/61/26 63/84/26 77/86/26
f 58/46/27 40/47/27 64/90/27 82/69/27
f 56/48/28 42/49/28 66/70/28 80/73/28
f 60/14/29 47/53/29 71/80/29 84/87/29
f 40/47/30 49/54/30 73/89/30 64/90/30
f 61/75/3 83/79/3 85/91/3 74/76/3
f 83/79/3 69/78/3 90/92/3 85/91/3
f 69/78/3 76/72/3 95/93/3 90/92/3
f 76/72/3 70/71/3 100/94/3 95/93/3
f 70/71/3 75/85/3 105/95/3 100/94/3
f 75/85/3 62/82/3 79/81/3 105/95/3
f 74/76/3 85/91/3 86/96/3 71/80/3
f 85/91/3 90/92/3 91/97/3 86/96/3
f 90/92/3 95/93/3 96/98/3 91/97/3
f 95/93/3 100/94/3 101/99/3 96/98/3
f 100/94/3 105/95/3 106/100/3 101/99/3
f 105/95/3 79/81/3 68/68/3 106/100/3
f 71/80/3 86/96/3 87/101/3 84/87/3
f 86/96/3 91/97/3 92/102/3 87/101/3
f 91/97/3 96/98/3 97/103/3 92/102/3
f 96/98/3 101/99/3 102/104/3 97/103/3
f 101/99/3 106/100/3 107/105/3 102/104/3
f 106/100/3 68/68/3 78/67/3 107/105/3
f 84/87/3 87/101/3 88/106/3 72/88/3
f 87/101/3 92/102/3 93/107/3 88/106/3
f 92/102/3 97/103/3 98/108/3 93/107/3
f 97/103/3 102/104/3 103/109/3 98/108/3
f 102/104/3 107/105/3 108/110/3 103/109/3
f 107/105/3 78/67/3 67/77/3 108/110/3
f 72/88/3 88/106/3 89/111/3 73/89/3
f 88/106/3 93/107/3 94/112/3 89/111/3
f 93/107/3 98/108/3 99/113/3 94/112/3
f 98/108/3 103/109/3 104/114/3 99/113/3
f 103/109/3 108/110/3 109/115/3 104/114/3
f 108/110/3 67/77/3 77/86/3 109/115/3
f 73/89/3 89/111/3 82/69/3 64/90/3
f 89/111/3 94/112/3 66/70/3 82/69/3
f 94/112/3 99/113/3 80/73/3 66/70/3
f 99/113/3 104/114/3 65/74/3 80/73/3
f 104/114/3 109/115/3 81/83/3 65/74/3
f 109/115/3 77/86/3 63/84/3 81/83/3
